HIERARCHY
ROOT hip
{
	OFFSET 0.000000 0.000000 0.000000
	CHANNELS 6 Xposition Yposition Zposition Zrotation Yrotation Xrotation 
	JOINT lhipjoint
	{
		OFFSET 0.000000 0.000000 0.000000
		CHANNELS 3 Zrotation Yrotation Xrotation
		JOINT lfemur
		{
			OFFSET 1.363060 -1.794630 0.839290
			CHANNELS 3 Zrotation Yrotation Xrotation
			JOINT ltibia
			{
				OFFSET 2.448110 -6.726130 0.000000
				CHANNELS 3 Zrotation Yrotation Xrotation
				JOINT lfoot
				{
					OFFSET 2.562200 -7.039590 0.000000
					CHANNELS 3 Zrotation Yrotation Xrotation
					JOINT ltoes
					{
						OFFSET 0.157640 -0.433110 2.322550
						CHANNELS 3 Zrotation Yrotation Xrotation
						End Site
						{
							OFFSET 0.000000 0.000000 0.000000
						}
					}
				}
			}
		}
	}
	JOINT rhipjoint
	{
		OFFSET 0.000000 0.000000 0.000000
		CHANNELS 3 Zrotation Yrotation Xrotation
		JOINT rfemur
		{
			OFFSET -1.305520 -1.794630 0.839290
			CHANNELS 3 Zrotation Yrotation Xrotation
			JOINT rtibia
			{
				OFFSET -2.542530 -6.985550 0.000000
				CHANNELS 3 Zrotation Yrotation Xrotation
				JOINT rfoot
				{
					OFFSET -2.568260 -7.056230 0.000000
					CHANNELS 3 Zrotation Yrotation Xrotation
					JOINT rtoes
					{
						OFFSET -0.164730 -0.452590 2.363150
						CHANNELS 3 Zrotation Yrotation Xrotation
						End Site
						{
							OFFSET 0.000000 0.000000 0.000000
						}
					}
				}
			}
		}
	}
	JOINT lowerback
	{
		OFFSET 0.000000 0.000000 0.000000
		CHANNELS 3 Zrotation Yrotation Xrotation
		JOINT upperback
		{
			OFFSET 0.028270 2.035590 -0.193380
			CHANNELS 3 Zrotation Yrotation Xrotation
			JOINT thorax
			{
				OFFSET 0.056720 2.048850 -0.042750
				CHANNELS 3 Zrotation Yrotation Xrotation
				JOINT lowerneck
				{
					OFFSET 0.000000 0.000000 0.000000
					CHANNELS 3 Zrotation Yrotation Xrotation
					JOINT upperneck
					{
						OFFSET -0.054170 1.746240 0.172020
						CHANNELS 3 Zrotation Yrotation Xrotation
						JOINT head
						{
							OFFSET 0.104070 1.761360 -0.123970
							CHANNELS 3 Zrotation Yrotation Xrotation
							End Site
							{
								OFFSET 0.000000 0.000000 0.000000
							}
						}
					}
				}
				JOINT lclavicle
				{
					OFFSET 0.000000 0.000000 0.000000
					CHANNELS 3 Zrotation Yrotation Xrotation
					JOINT lhumerus
					{
						OFFSET 3.362410 1.200890 -0.311210
						CHANNELS 3 Zrotation Yrotation Xrotation
						JOINT lradius
						{
							OFFSET 4.983000 -0.000000 -0.000000
							CHANNELS 3 Zrotation Yrotation Xrotation
							JOINT lwrist
							{
								OFFSET 3.483560 -0.000000 -0.000000
								CHANNELS 3 Zrotation Yrotation Xrotation
								JOINT lhand
								{
									OFFSET 0.000000 0.000000 0.000000
									CHANNELS 3 Zrotation Yrotation Xrotation
									JOINT lfingers
									{
										OFFSET 0.715260 -0.000000 -0.000000
										CHANNELS 3 Zrotation Yrotation Xrotation
										End Site
										{
											OFFSET 0.000000 0.000000 0.000000
										}
									}
								}
								JOINT lthumb
								{
									OFFSET 0.000000 0.000000 0.000000
									CHANNELS 3 Zrotation Yrotation Xrotation
									End Site
									{
										OFFSET 0.000000 0.000000 0.000000
									}
								}
							}
						}
					}
				}
				JOINT rclavicle
				{
					OFFSET 0.000000 0.000000 0.000000
					CHANNELS 3 Zrotation Yrotation Xrotation
					JOINT rhumerus
					{
						OFFSET -3.136600 1.374050 -0.404650
						CHANNELS 3 Zrotation Yrotation Xrotation
						JOINT rradius
						{
							OFFSET -5.241900 -0.000000 -0.000000
							CHANNELS 3 Zrotation Yrotation Xrotation
							JOINT rwrist
							{
								OFFSET -3.444170 -0.000000 -0.000000
								CHANNELS 3 Zrotation Yrotation Xrotation
								JOINT rhand
								{
									OFFSET 0.000000 0.000000 0.000000
									CHANNELS 3 Zrotation Yrotation Xrotation
									JOINT rfingers
									{
										OFFSET -0.622530 -0.000000 -0.000000
										CHANNELS 3 Zrotation Yrotation Xrotation
										End Site
										{
											OFFSET 0.000000 0.000000 0.000000
										}
									}
								}
								JOINT rthumb
								{
									OFFSET 0.000000 0.000000 0.000000
									CHANNELS 3 Zrotation Yrotation Xrotation
									End Site
									{
										OFFSET 0.000000 0.000000 0.000000
									}
								}
							}
						}
					}
				}
			}
		}
	}
}
MOTION
Frames: 7
Frame Time: 0.008333
0.593071 2.239181 -1.766058 -176.587502 0.341287 123.775763 2.909369 1.524679 -1.613297 -11.039586 -26.911003 -54.574857 8.390715 17.131162 53.203355 2.293309 9.763685 34.920434 2.115700 -9.103000 -26.118000 0.087372 -4.268107 5.067516 9.268380 -11.165703 -93.771541 -26.120999 -22.397891 105.905400 -1.363427 -4.281508 22.121265 -0.181200 -2.741800 7.560600 12.613855 10.969831 58.710200 -0.340707 10.632305 -1.210411 -14.580108 3.647403 -2.350474 -4.421867 -2.145264 -11.087139 4.920794 -2.999359 10.743597 1.228400 -1.119800 1.006700 -2.720646 -9.784137 4.914228 -56.408476 -25.620409 43.760010 109.578430 -51.237076 -71.086883 1.668235 -1.168464 130.562070 32.113043 10.615909 5.129600 -7.125000 0.000000 0.000000 4.803300 39.553500 -0.646500 4.745064 11.612759 2.457493 -37.200236 5.059252 -16.959602 -11.317493 23.492333 -1.999860 -1.771870 2.383065 120.601518 19.959332 8.758076 4.436300 7.125000 0.000000 0.000000 31.814500 -17.944800 24.608800 
0.630217 2.237730 -1.761222 -176.462275 -0.094694 123.629609 2.929198 1.515884 -1.635784 -11.516233 -26.825288 -54.234745 8.312718 17.076043 52.963694 2.287228 9.709486 34.857108 2.243400 -9.355700 -26.914500 0.077002 -4.291370 5.070439 8.890399 -10.967204 -93.521717 -26.156932 -22.381163 106.008810 -1.373555 -4.340881 22.258555 -0.168600 -2.645100 7.292200 12.505174 11.110855 59.009856 -0.347651 10.662514 -1.162045 -14.225409 3.684778 -1.962052 -4.891480 -1.961745 -11.103628 5.386790 -2.886028 10.464394 1.588700 -1.059600 0.786200 -2.823210 -9.750677 4.849966 -57.468171 -23.716851 43.342713 111.464142 -50.958133 -73.212187 1.559046 -1.073263 130.064221 31.744103 10.342788 5.001300 -7.125000 0.000000 0.000000 4.460200 39.421000 -0.614600 5.005840 11.403934 3.154582 -34.764021 8.062116 -34.250483 -11.831702 26.908877 -3.155063 -1.143773 2.260694 147.642990 11.532737 11.650190 2.933200 7.125000 0.000000 0.000000 25.963800 -16.193700 19.871600 
0.666589 2.237246 -1.757643 -176.338278 -0.494013 123.507790 2.962021 1.513660 -1.652512 -11.960743 -26.717192 -53.956163 8.243450 17.028381 52.752269 2.280115 9.664127 34.793620 2.344600 -9.549700 -27.530600 0.066927 -4.318838 5.083947 8.533838 -10.671573 -93.280329 -26.191398 -22.358082 106.107060 -1.378169 -4.409076 22.359409 -0.151300 -2.506300 6.907200 12.323059 11.258928 59.212887 -0.370708 10.651120 -1.115884 -13.797924 3.689047 -1.565229 -5.180641 -1.817712 -11.097068 5.708214 -2.801760 10.154755 1.855800 -1.018300 0.544000 -2.910770 -9.664140 4.759163 -58.581493 -21.669107 42.882108 113.166443 -50.725998 -75.102800 1.478868 -0.966111 129.430713 31.424630 10.399280 5.073700 -7.125000 0.000000 0.000000 4.183500 39.649400 -0.552800 5.293841 11.148157 3.886059 -32.598850 11.594889 -46.403476 -13.389524 30.470088 -4.600076 -0.790761 1.943676 167.659052 4.108003 11.599869 0.890600 7.125000 0.000000 0.000000 21.039600 -16.771200 15.138600 
0.701800 2.237439 -1.755128 -176.229010 -0.855902 123.368568 3.000397 1.519940 -1.664996 -12.398773 -26.568147 -53.674259 8.178209 16.986704 52.565993 2.294209 9.567273 34.789496 2.422900 -9.696300 -27.998900 0.042503 -4.349968 5.102548 8.148027 -10.256327 -92.972988 -26.221562 -22.326194 106.192504 -1.377530 -4.525756 22.452409 -0.152500 -2.516700 6.935900 12.063646 11.432960 59.397128 -0.393440 10.649852 -1.081402 -13.341189 3.654931 -1.301707 -5.223327 -1.720668 -10.980692 5.835850 -2.740219 9.864552 1.956700 -0.992800 0.301200 -2.944549 -9.580191 4.698620 -59.623711 -19.455093 42.447589 114.686377 -50.516501 -76.757977 1.431144 -0.850101 128.671920 31.079041 10.820968 5.343500 -7.125000 0.000000 0.000000 3.901600 40.265000 -0.456300 5.529039 10.941403 4.419220 -31.109501 15.284713 -54.490532 -14.792985 32.991711 -5.755289 -0.594272 1.603912 -179.208712 -1.547479 9.574196 -0.418500 7.125000 0.000000 0.000000 17.397800 -19.048300 11.297300 
0.734689 2.236859 -1.754063 -176.159703 -1.218474 123.234304 3.041119 1.529753 -1.677760 -12.859888 -26.393859 -53.425438 8.122060 16.952675 52.407979 2.300908 9.492358 34.766209 2.463100 -9.770400 -28.236500 0.011003 -4.383172 5.120291 7.708187 -9.766816 -92.656848 -26.250127 -22.289128 106.277482 -1.387548 -4.579865 22.578341 -0.170500 -2.660200 7.334200 11.733306 11.632462 59.558747 -0.412698 10.637464 -1.048918 -12.909267 3.586254 -1.122005 -5.112071 -1.645250 -10.838611 5.899660 -2.694151 9.600396 1.975400 -0.977400 0.089700 -2.939747 -9.508716 4.675991 -60.453551 -17.234343 42.084605 116.047095 -50.316869 -78.205976 1.402899 -0.726153 127.746505 30.506190 11.447346 5.669500 -7.125000 0.000000 0.000000 3.420000 41.074800 -0.331500 5.679780 10.775657 4.739983 -30.951876 18.872601 -61.600812 -14.261079 33.371875 -5.851652 -0.469774 1.239151 -170.017370 -6.169760 6.896450 -0.961500 7.125000 0.000000 0.000000 14.434900 -21.965100 8.246700 
0.765450 2.236279 -1.752903 -176.110675 -1.548988 123.111041 3.072796 1.542197 -1.697968 -13.289948 -26.187402 -53.201773 8.066909 16.924302 52.265721 2.328866 9.367574 34.803398 2.493000 -9.825100 -28.412200 -0.044205 -4.414212 5.125360 7.280495 -9.198142 -92.324042 -26.272724 -22.246508 106.345674 -1.398344 -4.641782 22.710324 -0.207800 -2.934900 8.097500 11.401818 11.821321 59.745859 -0.398939 10.636912 -1.019503 -12.595869 3.507488 -1.065039 -4.983305 -1.568094 -10.667543 5.965704 -2.640022 9.357066 1.927700 -0.959700 -0.103200 -2.902697 -9.509624 4.704943 -61.115178 -15.088646 41.758468 117.183742 -50.134520 -79.392540 1.399507 -0.605786 126.928975 29.767677 12.285303 6.045200 -7.125000 0.000000 0.000000 2.783600 42.067700 -0.201600 5.769657 10.733982 4.787162 -30.299682 19.405963 -59.061163 -14.740869 33.908953 -6.065178 -0.488305 1.152597 -171.820400 -8.203487 6.599135 -1.191100 7.125000 0.000000 0.000000 13.034200 -22.272800 7.307600 
0.792052 2.235505 -1.752903 -176.087690 -1.879185 122.994903 3.104697 1.553820 -1.721808 -13.741315 -25.986272 -52.985363 8.018446 16.899670 52.143853 2.349021 9.254280 34.813579 2.487900 -9.815800 -28.382300 -0.103717 -4.446456 5.125749 6.831281 -8.602629 -91.992144 -26.292767 -22.201854 106.409702 -1.408777 -4.684240 22.825424 -0.247500 -3.201500 8.840200 11.061156 11.998265 59.907198 -0.380107 10.599183 -0.984303 -12.339519 3.414593 -1.007591 -4.808293 -1.501891 -10.528629 6.011232 -2.594331 9.121532 1.844100 -0.948800 -0.281000 -2.860434 -9.522880 4.747483 -61.733084 -13.070145 41.411610 118.210496 -49.961980 -80.456791 1.397920 -0.492506 126.374730 28.999364 13.207428 6.427000 -7.125000 0.000000 0.000000 2.095900 43.128700 -0.096800 5.847038 10.732077 4.754942 -29.634578 19.280282 -55.090504 -14.990336 34.099152 -6.132374 -0.538169 1.088981 -176.260999 -10.195498 6.821613 -1.498700 7.125000 0.000000 0.000000 11.616900 -22.012900 6.548200 
